<?xml version="1.0" encoding="utf-8"?>
<!-- Generator: Adobe Illustrator 21.0.0, SVG Export Plug-In . SVG Version: 6.00 Build 0)  -->
<svg version="1.1" id="Capa_1" xmlns="http://www.w3.org/2000/svg" xmlns:xlink="http://www.w3.org/1999/xlink" x="0px" y="0px"
	 viewBox="0 0 331.8 71.6" style="enable-background:new 0 0 331.8 71.6;" xml:space="preserve">
<style type="text/css">
	.st0{fill:#999999;}
	.st1{fill:#E0A652;}
</style>
<path class="st0" d="M5.6,63.4V6.1h39.3v9.7H17.1v13.6H41V39H17.1v24.3H5.6z"/>
<path class="st0" d="M52,35.1c0-5.8,0.9-10.7,2.6-14.7c1.3-2.9,3.1-5.5,5.3-7.9c2.3-2.3,4.7-4,7.4-5.2c3.6-1.5,7.7-2.3,12.3-2.3
	c8.4,0,15.2,2.6,20.3,7.9c5.1,5.2,7.6,12.5,7.6,21.8c0,9.2-2.5,16.5-7.5,21.7c-5,5.2-11.7,7.8-20.2,7.8c-8.5,0-15.3-2.6-20.3-7.8
	C54.5,51.3,52,44.2,52,35.1z M63.9,34.7c0,6.5,1.5,11.4,4.5,14.7c3,3.3,6.8,5,11.4,5s8.4-1.7,11.3-5c3-3.3,4.4-8.3,4.4-14.9
	c0-6.6-1.4-11.5-4.3-14.7c-2.9-3.2-6.7-4.8-11.5-4.8s-8.6,1.6-11.5,4.9C65.4,23.2,63.9,28.1,63.9,34.7z"/>
<path class="st0" d="M114.2,35.1c0-5.8,0.9-10.7,2.6-14.7c1.3-2.9,3.1-5.5,5.3-7.9c2.3-2.3,4.7-4,7.4-5.2c3.6-1.5,7.7-2.3,12.3-2.3
	c8.4,0,15.2,2.6,20.3,7.9c5.1,5.2,7.6,12.5,7.6,21.8c0,9.2-2.5,16.5-7.5,21.7c-5,5.2-11.7,7.8-20.2,7.8c-8.5,0-15.3-2.6-20.3-7.8
	C116.7,51.3,114.2,44.2,114.2,35.1z M126.1,34.7c0,6.5,1.5,11.4,4.5,14.7c3,3.3,6.8,5,11.4,5s8.4-1.7,11.3-5c3-3.3,4.4-8.3,4.4-14.9
	c0-6.6-1.4-11.5-4.3-14.7c-2.9-3.2-6.7-4.8-11.5-4.8s-8.6,1.6-11.5,4.9C127.6,23.2,126.1,28.1,126.1,34.7z"/>
<path class="st0" d="M178.8,6.1h21.1c4.8,0,8.4,0.4,10.9,1.1c3.4,1,6.2,2.7,8.6,5.3c2.4,2.5,4.2,5.6,5.5,9.3
	c1.3,3.7,1.9,8.2,1.9,13.5c0,4.7-0.6,8.8-1.8,12.2c-1.4,4.2-3.5,7.5-6.1,10.1c-2,2-4.7,3.5-8.1,4.6c-2.6,0.8-6,1.2-10.2,1.2h-21.8
	V6.1z M190.3,15.8v37.9h8.6c3.2,0,5.6-0.2,7-0.5c1.9-0.5,3.4-1.3,4.7-2.4c1.2-1.1,2.2-3,3-5.5c0.8-2.6,1.2-6.1,1.2-10.5
	c0-4.4-0.4-7.8-1.2-10.2c-0.8-2.4-1.9-4.2-3.3-5.5s-3.2-2.2-5.4-2.7c-1.6-0.4-4.8-0.5-9.5-0.5H190.3z"/>
<path class="st1" d="M255.7,63.4V51.8h-23.4v-9.6l24.8-36.4h9.2v36.3h7.1v9.6h-7.1v11.5H255.7z M255.7,42.2V22.6l-13.2,19.6H255.7z"
	/>
<path class="st0" d="M281,6.1h11.6v31c0,4.9,0.1,8.1,0.4,9.6c0.5,2.3,1.7,4.2,3.5,5.6c1.9,1.4,4.4,2.1,7.6,2.1c3.3,0,5.8-0.7,7.4-2
	c1.7-1.3,2.7-3,3-4.9c0.3-2,0.5-5.2,0.5-9.7V6.1h11.6v30.1c0,6.9-0.3,11.7-0.9,14.6c-0.6,2.8-1.8,5.2-3.5,7.2s-3.9,3.5-6.7,4.7
	s-6.5,1.7-11,1.7c-5.5,0-9.6-0.6-12.4-1.9c-2.8-1.3-5.1-2.9-6.7-4.9c-1.6-2-2.7-4.1-3.2-6.3c-0.8-3.3-1.1-8.1-1.1-14.5V6.1z"/>
</svg>
